<?xml version="1.0" encoding="UTF-8" standalone="no"?>
<!-- Created with Inkscape (http://www.inkscape.org/) -->
<svg xmlns:dc="http://purl.org/dc/elements/1.1/" xmlns:cc="http://creativecommons.org/ns#" xmlns:rdf="http://www.w3.org/1999/02/22-rdf-syntax-ns#" xmlns:svg="http://www.w3.org/2000/svg" xmlns="http://www.w3.org/2000/svg" xmlns:sodipodi="http://sodipodi.sourceforge.net/DTD/sodipodi-0.dtd" xmlns:inkscape="http://www.inkscape.org/namespaces/inkscape" width="608.97339" height="708.66138" id="svg2" sodipodi:version="0.32" inkscape:version="0.46" version="1.0" sodipodi:docbase="/home/melwe/Utile/Ecles/ImagesMemory" sodipodi:docname="gorilla.svg" inkscape:output_extension="org.inkscape.output.svg.inkscape">
  <defs id="defs4">
    <inkscape:perspective sodipodi:type="inkscape:persp3d" inkscape:vp_x="0 : 354.33069 : 1" inkscape:vp_y="0 : 1000 : 0" inkscape:vp_z="708.66138 : 354.33069 : 1" inkscape:persp3d-origin="354.33069 : 236.22046 : 1" id="perspective4172"/>
  </defs>
  <sodipodi:namedview id="base" pagecolor="#ffffff" bordercolor="#666666" borderopacity="1.0" inkscape:pageopacity="0.0" inkscape:pageshadow="2" inkscape:zoom="0.9899495" inkscape:cx="1.8228946" inkscape:cy="387.04094" inkscape:document-units="px" inkscape:current-layer="layer1" inkscape:window-width="1600" inkscape:window-height="1130" inkscape:window-x="0" inkscape:window-y="24" width="20cm" height="20cm" units="cm" showgrid="false"/>
  <metadata id="metadata7">
    <rdf:RDF>
      <cc:Work rdf:about="">
        <dc:format>image/svg+xml</dc:format>
        <dc:type rdf:resource="http://purl.org/dc/dcmitype/StillImage"/>
      </cc:Work>
    </rdf:RDF>
  </metadata>
  <g inkscape:label="Calque 1" inkscape:groupmode="layer" id="layer1" transform="translate(-207.048, -97.9887)">
    <g id="g2860" transform="matrix(2.47573, 0, 0, 2.47573, -182.146, -144.605)">
      <path style="opacity: 1; fill: rgb(0, 0, 0); fill-opacity: 1; fill-rule: nonzero; stroke-width: 3; stroke-miterlimit: 4; stroke-dasharray: none;" d="M 241.78783,191.7916 C 236.39941,195.393 221.25984,197.58078 222.62463,197.64406 C 215.81395,202.65718 218.04549,200.57631 210.57345,205.76522 C 197.12994,212.2691 190.06437,225.40202 180.73889,236.25533 C 173.30615,248.02301 170.7621,261.6578 169.58784,275.22539 C 166.34598,286.49975 169.34864,297.94238 169.55474,309.33367 C 171.78308,322.38628 164.64493,334.34459 161.32263,346.49259 C 160.23223,356.78876 159.45522,367.62092 163.2263,377.46467 C 170.84096,385.7525 159.36662,387.33463 159.39758,377.07779 C 156.47323,365.61406 156.22243,352.99925 160.1807,341.60551 C 163.8699,331.23621 168.66191,320.12554 166.13981,308.84452 C 165.21264,296.16042 164.02241,283.57146 167.06731,270.98485 C 168.49563,255.65898 173.55261,239.93531 184.86231,228.83377 C 191.87783,215.48141 205.26317,208.19955 217.55583,200.50033 C 214.89767,201.49145 229.30806,192.11956 236.49785,193.2045 C 238.3929,192.32301 249.15342,186.77398 241.78783,191.7916 z" id="path2350"/>
      <path style="opacity: 1; fill: rgb(0, 0, 0); fill-opacity: 1; fill-rule: nonzero; stroke-width: 3; stroke-miterlimit: 4; stroke-dasharray: none;" d="M 188.72746,320.0549 C 193.80719,315.76358 215.40313,321.30824 205.8061,324.42376 C 205.03652,315.91545 177.58138,326.18652 188.72746,320.0549 z" id="path2352"/>
      <path style="opacity: 1; fill: rgb(0, 0, 0); fill-opacity: 1; fill-rule: nonzero; stroke-width: 3; stroke-miterlimit: 4; stroke-dasharray: none;" d="M 237.73853,282.07126 C 234.41205,296.15197 223.29784,306.79129 218.76385,320.5576 C 210.22654,332.9776 202.36045,346.40092 200.9168,361.85677 C 200.03165,367.92887 204.0455,380.94646 203.85537,378.21419 C 199.19858,383.67558 195.34432,363.96667 198.84344,356.87298 C 201.06585,342.80557 209.93874,331.86034 216.37648,319.83617 C 221.52866,307.04248 230.91615,295.88468 235.28575,283.22318 C 236.10334,282.83921 236.92093,282.45523 237.73853,282.07126 z" id="path2354"/>
      <path style="opacity: 1; fill: rgb(0, 0, 0); fill-opacity: 1; fill-rule: nonzero; stroke-width: 3; stroke-miterlimit: 4; stroke-dasharray: none;" d="M 214.61693,258.04773 C 226.64545,255.12224 230.29144,269.67631 236.30598,276.81091 C 240.61869,289.57218 247.21948,305.51975 262.47105,307.36202 C 267.83419,309.30216 290.20762,307.8894 274.81348,311.16959 C 260.2661,311.11237 243.6593,306.96447 238.47609,291.33236 C 232.31667,280.2309 228.50883,260.31065 213.415,259.97785 C 209.3693,261.14246 214.19415,258.66295 214.61693,258.04773 z" id="path2358"/>
      <path style="opacity: 1; fill: rgb(0, 0, 0); fill-opacity: 1; fill-rule: nonzero; stroke-width: 3; stroke-miterlimit: 4; stroke-dasharray: none;" d="M 247.52171,302.93237 C 252.02141,308.30632 258.64135,316.18108 263.57752,318.79916 C 256.97264,322.96731 243.06839,306.40572 247.01866,303.27098 L 247.52171,302.93237 z" id="path2360"/>
      <path style="opacity: 1; fill: rgb(0, 0, 0); fill-opacity: 1; fill-rule: nonzero; stroke-width: 3; stroke-miterlimit: 4; stroke-dasharray: none;" d="M 264.74057,321.56912 C 267.09929,333.59242 265.94413,345.91818 265.18047,358.02458 C 262.10198,363.5302 270.80431,375.15335 260.94247,366.73313 C 262.84637,356.77529 262.57984,346.77658 263.00106,336.62333 C 264.97755,331.71515 257.55796,323.20553 264.74057,321.56912 z" id="path2364"/>
      <path style="opacity: 1; fill: rgb(0, 0, 0); fill-opacity: 1; fill-rule: nonzero; stroke-width: 3; stroke-miterlimit: 4; stroke-dasharray: none;" d="M 255.57552,224.97221 C 266.64925,233.31166 270.26062,246.1339 277.53656,257.11069 C 279.0868,270.80275 276.63849,285.10774 278.8254,298.63592 C 288.18245,308.15979 279.96252,320.90016 285.2783,331.97108 C 289.36973,342.03601 290.36996,352.38463 295.52515,362.08472 C 302.73149,366.05434 298.37815,374.90944 294.0048,366.01453 C 287.27373,357.54234 287.7374,346.41085 283.2287,337.06005 C 277.53537,327.63058 282.55035,316.07557 279.25669,306.82521 C 271.54721,295.75849 276.01658,281.647 274.833,269.12853 C 276.25284,256.53632 267.05977,246.57209 261.4835,236.47028 C 261.16838,232.30339 247.95547,227.73567 255.57552,224.97221 z" id="path2366"/>
      <path style="opacity: 1; fill: rgb(0, 0, 0); fill-opacity: 1; fill-rule: nonzero; stroke-width: 3; stroke-miterlimit: 4; stroke-dasharray: none;" d="M 320.68002,211.28368 C 331.73863,220.80689 325.57496,235.62772 331.14569,247.49721 C 335.31633,253.67187 323.301,269.43445 328.31072,255.65896 C 325.32173,243.98783 326.66541,230.99083 322.27671,219.93651 C 322.0793,215.99928 314.34177,213.34281 320.68002,211.28368 z" id="path2368"/>
      <path style="opacity: 1; fill: rgb(0, 0, 0); fill-opacity: 1; fill-rule: nonzero; stroke-width: 3; stroke-miterlimit: 4; stroke-dasharray: none;" d="M 323.43988,255.02002 C 331.63853,263.43076 314.22519,259.91487 323.43988,255.02002 z" id="path2370"/>
      <path style="opacity: 1; fill: rgb(0, 0, 0); fill-opacity: 1; fill-rule: nonzero; stroke-width: 3; stroke-miterlimit: 4; stroke-dasharray: none;" d="M 323.74387,261.52826 C 324.68579,275.1012 329.79535,288.09164 328.35652,301.85467 C 326.3879,310.65135 326.8113,322.02717 329.66554,327.87813 C 319.22252,325.72496 326.11052,307.98523 325.24624,299.15602 C 326.22951,286.82626 321.08966,275.36464 320.61837,263.17004 C 321.6602,262.62278 322.70203,262.07552 323.74387,261.52826 z" id="path2372"/>
      <path style="opacity: 1; fill: rgb(0, 0, 0); fill-opacity: 1; fill-rule: nonzero; stroke-width: 3; stroke-miterlimit: 4; stroke-dasharray: none;" d="M 333.13852,321.52243 C 337.56881,331.95087 333.81832,345.3715 337.87385,354.60867 C 346.14247,357.66268 338.67757,369.07055 336.96302,357.55394 C 328.31752,351.60414 335.35344,336.29506 331.20052,326.76681 C 329.81579,323.19796 329.79665,323.03483 333.13852,321.52243 z" id="path2374"/>
      <path style="opacity: 1; fill: rgb(0, 0, 0); fill-opacity: 1; fill-rule: nonzero; stroke-width: 3; stroke-miterlimit: 4; stroke-dasharray: none;" d="M 298.32684,325.77921 C 301.16135,331.20568 323.79266,329.67964 312.1905,332.6068 C 309.15061,333.43506 289.59215,329.17346 298.32684,325.77921 z" id="path2376"/>
      <path style="opacity: 1; fill: rgb(0, 0, 0); fill-opacity: 1; fill-rule: nonzero; stroke-width: 3; stroke-miterlimit: 4; stroke-dasharray: none;" d="M 324.11966,271.44556 C 333.88956,261.94973 339.40138,248.2718 350.83626,240.5512 C 345.22445,244.82134 354.94707,238.13708 347.24405,244.92624 C 339.41055,253.35021 334.49567,265.2794 324.56226,271.25751 L 324.11966,271.44556 z" id="path2378"/>
      <path style="opacity: 1; fill: rgb(0, 0, 0); fill-opacity: 1; fill-rule: nonzero; stroke-width: 3; stroke-miterlimit: 4; stroke-dasharray: none;" d="M 358.37589,199.74823 C 363.3598,213.13856 354.36054,225.65003 353.01164,238.71403 C 352.32866,243.69872 349.52096,260.94585 345.72254,257.60185 C 350.1295,245.59406 349.81817,232.47556 355.02379,220.57226 C 360.22051,214.65801 351.65919,202.17305 358.37589,199.74823 z" id="path2380"/>
      <path style="opacity: 1; fill: rgb(0, 0, 0); fill-opacity: 1; fill-rule: nonzero; stroke-width: 3; stroke-miterlimit: 4; stroke-dasharray: none;" d="M 346.54703,262.42368 C 349.03441,257.87399 359.87496,251.0343 350.99048,259.93122 C 350.01127,261.50564 348.05706,261.65202 346.54703,262.42368 z" id="path2382"/>
      <path style="opacity: 1; fill: rgb(0, 0, 0); fill-opacity: 1; fill-rule: nonzero; stroke-width: 3; stroke-miterlimit: 4; stroke-dasharray: none;" d="M 356.25815,255.04243 C 364.93671,259.91686 358.07099,282.54198 354.94892,278.68972 C 359.47194,271.27668 355.91528,261.34253 354.7037,255.93897 C 355.22185,255.64013 355.74,255.34128 356.25815,255.04243 z" id="path2384"/>
      <path style="opacity: 1; fill: rgb(0, 0, 0); fill-opacity: 1; fill-rule: nonzero; stroke-width: 3; stroke-miterlimit: 4; stroke-dasharray: none;" d="M 356.80536,281.71854 C 359.33674,293.39293 352.55438,305.10807 350.12807,316.15247 C 346.98435,327.88262 339.08495,340.01019 343.2831,352.52776 C 335.64653,358.63719 339.73275,335.41587 342.26261,330.67933 C 347.00415,319.76514 349.36127,308.5373 353.09772,297.28592 C 355.85089,292.3545 351.43394,283.32291 356.80536,281.71854 z" id="path2386"/>
      <path style="opacity: 1; fill: rgb(0, 0, 0); fill-opacity: 1; fill-rule: nonzero; stroke-width: 3; stroke-miterlimit: 4; stroke-dasharray: none;" d="M 372.45596,151.63268 C 385.60279,148.43274 398.37458,159.34701 399.50007,172.23036 C 401.70406,187.43002 398.59436,202.37537 398.74289,217.55679 C 397.303,230.72419 399.19536,243.92356 401.90584,256.78581 C 404.04023,269.21891 403.33561,282.15308 400.99032,294.71718 C 399.10328,309.14428 394.77912,323.71642 386.51476,335.862 C 383.08192,338.5567 375.69594,355.46305 375.32436,350.08148 C 381.74629,337.48099 392.05767,326.74583 394.38634,312.18099 C 398.1388,300.38724 399.29087,287.83037 400.20111,275.61625 C 400.54137,263.89381 397.05752,252.71596 396.13783,240.99217 C 393.76944,228.4433 395.90956,215.4018 396.22081,202.70161 C 397.45841,193.2303 397.29001,183.48592 396.35769,173.92793 C 396.36877,160.31756 380.11512,151.11626 370.25079,153.2771 C 370.98585,152.72896 371.72091,152.18082 372.45596,151.63268 z" id="path2390"/>
      <path style="opacity: 1; fill: rgb(0, 0, 0); fill-opacity: 1; fill-rule: nonzero; stroke-width: 3; stroke-miterlimit: 4; stroke-dasharray: none;" d="M 348.95908,363.74316 C 352.95764,371.27255 370.47864,362.87787 367.83689,364.81273 C 365.65397,368.77041 346.26915,371.63901 347.96378,364.36557 L 348.60535,363.96436 L 348.95908,363.74316 z" id="path2392"/>
      <path style="opacity: 1; fill: rgb(0, 0, 0); fill-opacity: 1; fill-rule: nonzero; stroke-width: 3; stroke-miterlimit: 4; stroke-dasharray: none;" d="M 313.99265,378.31073 C 319.86235,381.85272 335.0433,377.39375 332.41858,377.89265 C 338.39519,373.98749 343.61437,373.92712 333.56011,377.91825 C 340.05295,374.55317 322.90013,384.52583 318.47131,381.64695 C 315.42717,381.83668 307.38742,381.04552 313.99265,378.31073 z" id="path2394"/>
      <path style="opacity: 1; fill: rgb(0, 0, 0); fill-opacity: 1; fill-rule: nonzero; stroke-width: 3; stroke-miterlimit: 4; stroke-dasharray: none;" d="M 341.55072,98.796562 C 356.97288,99.913599 367.84796,113.2322 363.66401,128.64705 C 366.23067,133.4566 360.24334,152.15013 360.56877,138.81573 C 358.57717,127.9912 365.61103,112.09577 352.82755,106.19896 C 351.10896,102.27783 333.05401,101.76201 341.55072,98.796562 z" id="path2398"/>
      <path style="opacity: 1; fill: rgb(0, 0, 0); fill-opacity: 1; fill-rule: nonzero; stroke-width: 3; stroke-miterlimit: 4; stroke-dasharray: none;" d="M 362.14459,145.37901 C 370.7127,146.87451 369.06942,164.25978 363.55721,165.5318 C 365.8667,158.66805 364.07126,148.67394 360.48849,146.52133 C 361.04053,146.14056 361.59256,145.75979 362.14459,145.37901 z" id="path2400"/>
      <path style="opacity: 1; fill: rgb(0, 0, 0); fill-opacity: 1; fill-rule: nonzero; stroke-width: 3; stroke-miterlimit: 4; stroke-dasharray: none;" d="M 319.78061,150.43874 C 326.77586,148.38203 333.82863,157.11308 323.41487,151.41329 C 322.22626,151.20026 316.06721,152.26966 319.78061,150.43874 z" id="path2408"/>
      <path style="opacity: 1; fill: rgb(0, 0, 0); fill-opacity: 1; fill-rule: nonzero; stroke-width: 3; stroke-miterlimit: 4; stroke-dasharray: none;" d="M 320.11581,152.03632 C 325.27568,155.54643 337.46627,154.27544 324.64854,155.32832 C 323.33562,155.3747 315.85883,153.44643 320.11581,152.03632 z" id="path2410"/>
      <path style="opacity: 1; fill: rgb(0, 0, 0); fill-opacity: 1; fill-rule: nonzero; stroke-width: 3; stroke-miterlimit: 4; stroke-dasharray: none;" d="M 339.72412,153.77338 C 346.22378,150.59894 350.49887,154.28855 341.1995,153.68444 C 339.88438,154.21332 337.16894,155.48094 339.72412,153.77338 z" id="path2412"/>
      <path style="opacity: 1; fill: rgb(0, 0, 0); fill-opacity: 1; fill-rule: nonzero; stroke-width: 3; stroke-miterlimit: 4; stroke-dasharray: none;" d="M 339.0874,154.56512 C 346.54392,157.55021 354.30725,150.93519 342.83488,156.83687 C 341.70895,157.10556 335.03084,155.97308 339.0874,154.56512 z" id="path2414"/>
      <path style="opacity: 1; fill: rgb(0, 0, 0); fill-opacity: 1; fill-rule: nonzero; stroke-width: 3; stroke-miterlimit: 4; stroke-dasharray: none;" d="M 321.12051,160.35759 C 324.12341,168.20849 310.67554,173.21359 316.6283,180.50558 C 324.45526,183.21476 333.36017,185.86929 341.76697,183.13768 C 347.95392,183.00207 339.83212,178.65747 332.96991,178.93102 C 329.41717,175.0815 312.78406,179.54813 323.76522,176.25755 C 330.86039,175.48116 337.34422,179.53692 344.34281,179.36407 C 346.3428,185.37642 330.94157,186.6944 325.57385,184.21909 C 319.11786,184.40555 308.8466,179.69662 315.44697,172.33942 C 319.96117,169.3084 318.60766,163.2865 321.12051,160.35759 z" id="path2416"/>
      <path style="opacity: 1; fill: rgb(0, 0, 0); fill-opacity: 1; fill-rule: nonzero; stroke-width: 3; stroke-miterlimit: 4; stroke-dasharray: none;" d="M 319.27573,175.77347 C 327.23548,173.63618 335.34798,175.24828 342.69743,178.52942 C 343.56649,182.00289 332.16293,174.86059 328.14104,175.94672 C 326.67434,174.86726 314.79618,178.09005 319.27573,175.77347 z" id="path2418"/>
      <path style="opacity: 1; fill: rgb(0, 0, 0); fill-opacity: 1; fill-rule: nonzero; stroke-width: 3; stroke-miterlimit: 4; stroke-dasharray: none;" d="M 327.64023,162.58093 C 335.24813,166.73406 327.66588,168.26385 326.82918,163.07795 L 327.47437,162.68257 L 327.64023,162.58093 z" id="path2422"/>
      <path style="opacity: 1; fill: rgb(0, 0, 0); fill-opacity: 1; fill-rule: nonzero; stroke-width: 3; stroke-miterlimit: 4; stroke-dasharray: none;" d="M 334.45374,165.59531 C 349.0197,163.80762 330.9791,168.86865 334.45374,165.59531 z" id="path2424"/>
      <path style="opacity: 1; fill: rgb(0, 0, 0); fill-opacity: 1; fill-rule: nonzero; stroke-width: 3; stroke-miterlimit: 4; stroke-dasharray: none;" d="M 334.25705,100.2178 C 324.09685,99.166486 314.93316,105.55805 315.67529,105.44554 C 313.26473,106.97406 309.2746,108.38745 314.25388,105.87682 C 300.57374,112.55456 296.2676,128.96328 283.89,137.59996 C 273.38416,147.82678 262.80886,158.83706 255.74175,171.86549 C 246.7357,184.16918 239.55093,197.75586 233.62929,211.73051 C 229.83614,224.12885 229.79417,236.44627 236.84264,247.90232 C 242.14456,254.5774 234.65611,260.0025 233.75201,249.6352 C 226.85052,237.72281 226.0504,224.29889 231.1975,211.70513 C 236.3184,198.94494 243.256,186.98084 250.85506,175.47524 C 258.05319,162.30849 268.71269,151.86009 278.30621,140.46467 C 292.1719,132.13004 297.03796,114.69534 311.01229,106.99082 C 316.35342,102.88832 307.60728,110.17196 314.30104,105.21553 C 319.54418,102.73356 310.72961,107.53702 315.27699,104.9564 C 322.51029,100.84646 311.58091,107.37628 318.92681,102.55888 C 321.09754,99.526207 342.25807,95.353428 334.25705,100.2178 z" id="path2638"/>
      <path style="opacity: 1; fill: rgb(0, 0, 0); fill-opacity: 1; fill-rule: nonzero; stroke-width: 3; stroke-miterlimit: 4; stroke-dasharray: none;" d="M 311.72162,126.04171 C 308.93995,133.63962 310.59094,142.36483 305.02678,148.96692 C 301.99323,155.40447 297.79547,157.27202 303.47185,149.62772 C 308.82767,143.07967 307.61096,134.52783 309.97231,126.9058 C 310.55541,126.61777 311.13852,126.32974 311.72162,126.04171 z" id="path2850"/>
      <path style="opacity: 1; fill: rgb(0, 0, 0); fill-opacity: 1; fill-rule: nonzero; stroke-width: 3; stroke-miterlimit: 4; stroke-dasharray: none;" d="M 305.74484,138.45271 C 297.98824,142.69365 296.45291,152.54292 299.03465,160.30229 C 297.77827,168.09315 302.72559,174.61965 305.20463,181.56364 C 310.74657,186.69862 314.96127,193.75152 320.89679,198.87507 C 327.38269,203.37905 335.11819,202.92127 342.22978,200.15299 C 347.19776,198.91854 350.72406,196.55797 357.38992,189.56074 C 362.08436,183.61931 363.30032,175.27492 362.9931,167.78939 C 367.14724,167.51201 363.32324,179.66281 361.93733,183.49014 C 359.42025,190.60812 350.11967,198.13921 344.51724,199.43351 C 337.58818,202.79933 328.74838,205.61977 321.75709,200.85179 C 314.79741,196.97372 310.17658,189.54863 305.36208,183.45356 C 301.01019,178.16089 297.51756,170.39451 297.40977,163.09741 C 296.66139,156.04581 294.68535,147.54068 300.59434,141.87009 C 302.48512,140.93075 303.65316,138.98617 305.74484,138.45271 z" id="path2852"/>
      <path style="opacity: 1; fill: rgb(0, 0, 0); fill-opacity: 1; fill-rule: nonzero; stroke-width: 3; stroke-miterlimit: 4; stroke-dasharray: none;" d="M 320.68298,160.46519 C 326.99701,153.60231 334.04064,162.50422 339.97874,158.83376 C 349.81599,160.63356 340.82767,172.04285 346.82791,177.22511 C 346.76356,186.28691 345.21924,177.44066 342.60439,171.66064 C 347.55099,164.06653 337.21923,157.10209 335.40793,160.16957 C 329.90043,161.26594 324.57864,156.23009 320.68298,160.46519 z" id="path2854"/>
      <path style="opacity: 1; fill: rgb(0, 0, 0); fill-opacity: 1; fill-rule: nonzero; stroke-width: 3; stroke-miterlimit: 4; stroke-dasharray: none;" d="M 315.53781,141.19554 C 324.12602,135.15705 329.06551,145.87645 336.93404,145.77229 C 342.20583,143.59512 356.59526,144.23725 355.40531,149.97826 C 349.67594,143.61237 340.65749,146.34017 333.11341,146.79281 C 328.31645,142.27311 317.20541,139.26297 315.304,141.37858 L 315.53781,141.19554 z" id="path2856"/>
      <path style="opacity: 1; fill: rgb(0, 0, 0); fill-opacity: 1; fill-rule: nonzero; stroke-width: 3; stroke-miterlimit: 4; stroke-dasharray: none;" d="M 328.38983,150.12328 C 331.05728,153.6328 347.56726,149.81362 340.86383,152.31257 C 338.06666,153.68031 325.68051,152.63352 328.38983,150.12328 z" id="path2858"/>
    </g>
  </g>
</svg>